<?xml version="1.0" standalone="no"?><!DOCTYPE svg PUBLIC "-//W3C//DTD SVG 1.1//EN" "http://www.w3.org/Graphics/SVG/1.1/DTD/svg11.dtd"><svg t="1710314730546" class="icon" viewBox="0 0 1024 1024" version="1.1" xmlns="http://www.w3.org/2000/svg" p-id="2716" xmlns:xlink="http://www.w3.org/1999/xlink" width="200" height="200"><path d="M703.852832 754.706868c-17.152429-6.860972-34.304858-12.0067-53.172529-15.437186V384.214405c0-65.179229-41.165829-121.782245-97.768844-145.795645 0-1.715243 1.715243-5.145729 1.715243-6.860971V133.788945c0-13.721943-10.291457-24.0134-24.013401-24.013401h-8.576214V89.19263h77.185929c13.721943 0 24.0134-10.291457 24.013401-24.013401V24.0134C623.236417 10.291457 612.944959 0 599.223016 0h-171.524288c-13.721943 0-24.0134 10.291457-24.0134 24.0134-51.457286-1.715243-92.623116 25.728643-120.067002 78.901173-17.152429 36.020101-29.159129 84.046901-36.0201 144.080402-8.576214 77.18593-12.0067 145.795645-12.0067 212.690117v24.0134c0 36.020101 0 72.040201 6.860971 108.060302 13.721943 66.894472 53.172529 106.345059 101.19933 128.643216v262.432161c0 22.298157 18.867672 41.165829 41.165829 41.165829h226.412061c17.152429 0 30.874372-10.291457 37.735343-25.728643H654.110789c73.755444 0 126.927973-41.165829 133.788944-102.914573 5.145729-60.033501-29.159129-118.351759-84.046901-140.649916z m-428.81072-168.093803c-6.860972-32.589615-6.860972-68.609715-6.860972-102.914573v-25.728643c-1.715243-63.463987 1.715243-132.073702 10.291458-207.544388 5.145729-58.318258 15.437186-101.19933 32.589614-133.788945 20.582915-42.881072 51.457286-61.748744 90.907873-60.033501v6.860972c0 13.721943 10.291457 24.0134 24.0134 24.0134h48.026801v22.298157h-8.576214c-13.721943 0-24.0134 10.291457-24.013401 24.013401v101.19933c-56.603015 20.582915-97.768844 75.470687-97.768844 140.649916v308.743719c-37.735343-22.298157-60.033501-53.172529-68.609715-97.768845z m478.552764 307.028476c-5.145729 44.596315-44.596315 73.755444-102.914573 73.755444V771.859296c13.721943 3.430486 27.443886 6.860972 41.165829 13.721944 41.165829 17.152429 66.894472 61.748744 61.748744 108.060301z" fill="#2BD2FA" p-id="2717"></path></svg>